<svg width="288" height="47" viewBox="0 0 288 47" fill="none" xmlns="http://www.w3.org/2000/svg">
<path fill-rule="evenodd" clip-rule="evenodd" d="M108.092 22.0721L118.276 27.9139C107.361 41.2849 91.1642 45.7322 85.0815 46.9999V46.9948L73.8402 40.5465C74.6989 40.3204 75.5678 40.1114 76.4471 39.9195C89.028 37.1819 99.5607 31.3007 107.748 22.4438L108.092 22.0721ZM83.1674 7.77388L93.65 13.787C86.2639 21.3299 77.1105 26.3768 66.3831 28.7821C53.3643 31.7064 42.7764 37.9062 35.061 46.9944L24.5542 40.9676C32.6041 31.088 43.1747 24.7271 55.9832 22.0666C66.3193 19.9063 75.3054 15.25 82.6933 8.22444L83.1674 7.77388ZM95.6847 14.9531L106.072 20.9131C98.2088 29.4171 88.0865 35.0688 75.9607 37.7087C67.3005 39.5795 60.4695 42.9972 55.0989 46.9853L44.6714 41.0048C50.9007 36.2697 58.3316 32.9102 66.885 30.9898C78.0366 28.4886 87.602 23.2207 95.314 15.3334L95.6847 14.9531ZM261.271 19.9269C265.768 19.8412 269.368 23.5313 269.309 27.9443C269.309 32.5287 265.913 35.9875 261.358 35.9875C259.618 35.9875 257.934 35.4119 256.801 34.4885H256.746V41.7831H251.725V20.2729H256.482V21.6571H256.542C257.761 20.5042 259.328 19.9269 261.271 19.9269ZM70.9396 0.759449L81.1136 6.59439C75.1826 12.234 66.8879 17.4762 55.5156 19.8506C39.8503 23.1073 29.3314 31.404 22.5573 39.8207L12.4471 34.0217C13.004 33.1874 22.8867 17.9388 44.883 12.9313C65.0017 8.35035 70.9396 0.759449 70.9396 0.759449ZM202.668 15.0619C207.446 15.0619 211.108 17.4603 212.027 21.1453L207.218 22.1988C206.532 20.1739 205.015 19.194 202.668 19.194C200.692 19.194 199.378 19.9169 199.378 21.0305C199.492 22.0292 200.208 22.3325 204.958 23.446C210.194 24.6726 212.682 26.569 212.682 29.9079C212.682 33.6786 209.163 36.1061 203.783 36.1061C198.032 36.1061 194.313 33.4507 193.597 28.8544L198.434 27.9978C199.034 30.7645 200.692 31.9449 203.813 31.9449C206.189 31.9449 207.589 31.2528 207.589 30.0244C207.589 28.8252 206.532 28.2411 201.694 27.1549C196.573 26.014 194.284 24.1998 194.284 21.1161C194.284 17.5751 197.661 15.0619 202.668 15.0619ZM241.365 19.7241C246.28 19.8007 250.052 23.3755 249.966 27.9149L249.965 28.2229C249.878 32.7171 245.994 36.1891 241.028 36.1054L240.691 36.1056C235.775 36.0291 232.004 32.4543 232.09 27.9149L232.09 27.6069C232.178 23.1126 236.061 19.6406 241.028 19.7244L241.365 19.7241ZM183.904 19.724C188.926 19.724 192.554 23.3028 192.554 27.9437V29.4135H180.159C180.306 31.1455 181.787 32.182 184.225 32.182C185.819 32.182 187.357 31.4607 188.868 30.0474L191.652 33.2218C189.535 35.18 187.185 36.1033 184.05 36.1033C178.682 36.1033 175.197 32.8741 175.197 27.9437C175.111 23.3593 179 19.6384 183.904 19.724ZM222.658 19.7252C226.664 19.7252 230.027 21.9746 230.9 25.2021L226.226 26.6155C225.764 25.0308 224.486 24.08 222.658 24.08C220.453 24.08 218.915 25.6081 218.915 27.914C218.915 30.1908 220.453 31.7497 222.658 31.7497C224.486 31.7497 225.734 30.8264 226.226 29.2126L230.9 30.6242C230.027 33.8552 226.664 36.1045 222.658 36.1045C217.696 36.1045 213.895 32.5857 213.895 27.914C213.895 23.244 217.696 19.7252 222.658 19.7252ZM279.348 19.724C284.369 19.724 288 23.3028 288 27.9437V29.4135H275.605C275.75 31.1455 277.233 32.182 279.671 32.182C281.266 32.182 282.802 31.4607 284.312 30.0474L287.098 33.2218C284.981 35.18 282.631 36.1033 279.495 36.1033C274.128 36.1033 270.643 32.8741 270.643 27.9437C270.557 23.3593 274.447 19.6384 279.348 19.724ZM161.27 20.274V28.0584C161.27 30.3934 162.313 31.5207 164.635 31.5207C166.813 31.5207 168.263 30.1348 168.263 28.0584V20.274H173.283V35.5551H168.408V34.087H168.352C167.134 35.3547 165.447 35.9886 163.301 35.9886C161.123 35.9886 159.411 35.3821 158.135 34.1452C156.887 32.9032 156.247 31.2329 156.247 29.1257V20.274H161.27ZM153.927 15.0624V35.5567H148.907V15.0624H153.927ZM139.803 15.0617C143.46 15.0617 146.108 17.3111 146.108 20.5129C146.108 22.1284 145.323 23.6994 144.048 24.508V24.5645C145.789 25.4022 146.877 27.1753 146.877 29.2516C146.877 33.4317 144.23 35.556 138.86 35.556H128.362L128.317 15.0617H139.803ZM47.9633 0.759277L57.8873 6.45203C54.396 7.9476 49.9546 9.45687 44.3754 10.7263C22.8532 15.6259 12.4395 29.9254 10.5706 32.7418L10.4637 32.884L0 26.8812C0.496546 26.2062 1.00171 25.5261 1.55171 24.8391C7.50682 17.3544 18.2498 7.7266 35.641 4.35172C39.8754 3.53113 44.2409 2.46556 47.9633 0.759277ZM241.028 24.0792C238.678 24.0792 237.111 25.6364 237.111 27.9149C237.111 30.1351 238.678 31.7506 241.028 31.7506C243.378 31.7506 244.945 30.1351 244.945 27.9149C244.945 25.6947 243.378 24.0792 241.028 24.0792ZM260.458 24.28C258.165 24.28 256.627 25.7789 256.627 27.8861C256.627 30.1063 258.223 31.6636 260.458 31.6636C262.692 31.6636 264.29 30.1063 264.29 27.8861C264.29 25.7789 262.751 24.28 260.458 24.28ZM139.339 27.016H133.396L133.439 31.2303H139.382C141.008 31.2303 141.768 30.4902 141.768 29.0769C141.768 27.7801 140.877 27.016 139.339 27.016ZM183.962 23.5032C181.902 23.5032 180.394 24.5397 180.19 26.126H187.678C187.475 24.4831 186.081 23.5032 183.962 23.5032ZM279.409 23.5032C277.347 23.5032 275.838 24.5397 275.636 26.126H283.124C282.921 24.4831 281.528 23.5032 279.409 23.5032ZM138.875 19.3874H133.396V23.0946H138.875C140.239 23.0946 140.97 22.2997 140.97 21.1177C140.97 19.9939 140.239 19.3874 138.875 19.3874Z" fill="white"/>
</svg>
