<svg width="43" height="42" viewBox="0 0 43 42" fill="none" xmlns="http://www.w3.org/2000/svg">
<path fill-rule="evenodd" clip-rule="evenodd" d="M29.042 14.4146C29.9021 14.6457 30.5825 15.3261 30.8135 16.1861C31.2372 17.7523 31.25 21 31.25 21C31.25 21 31.25 24.2606 30.8264 25.8139C30.5953 26.674 29.915 27.3543 29.0549 27.5854C27.5016 28.009 21.25 28.009 21.25 28.009C21.25 28.009 14.9984 28.009 13.4451 27.5854C12.585 27.3543 11.9047 26.674 11.6736 25.8139C11.25 24.2478 11.25 21 11.25 21C11.25 21 11.25 17.7523 11.6608 16.199C11.8918 15.3389 12.5722 14.6586 13.4323 14.4275C14.9856 14.0039 21.2372 13.991 21.2372 13.991C21.2372 13.991 27.4888 13.991 29.042 14.4146ZM24.4336 21L19.2474 24.0039V17.9962L24.4336 21Z" fill="white"/>
<rect x="0.75" y="0.5" width="41" height="41" rx="4.5" stroke="white"/>
</svg>
