<svg width="43" height="42" viewBox="0 0 43 42" fill="none" xmlns="http://www.w3.org/2000/svg">
<path fill-rule="evenodd" clip-rule="evenodd" d="M16.5809 14.8379C16.5809 15.7718 15.8699 16.5275 14.7579 16.5275C13.6893 16.5275 12.9783 15.7718 13.0003 14.8379C12.9783 13.8587 13.6893 13.125 14.7792 13.125C15.8699 13.125 16.5596 13.8587 16.5809 14.8379ZM13.0897 28.7394V17.8622H16.4702V28.7387H13.0897V28.7394Z" fill="white"/>
<path fill-rule="evenodd" clip-rule="evenodd" d="M19.1798 21.3334C19.1798 19.9767 19.1351 18.8201 19.0904 17.8636H22.0266L22.1827 19.3537H22.2495C22.6944 18.664 23.8063 17.6194 25.6079 17.6194C27.8318 17.6194 29.5 19.0876 29.5 22.2893V28.7408H26.1195V22.7128C26.1195 21.3107 25.6306 20.3549 24.4073 20.3549C23.4728 20.3549 22.9172 20.9999 22.6951 21.6222C22.6057 21.845 22.5617 22.1559 22.5617 22.468V28.7408H19.1812V21.3334H19.1798Z" fill="white"/>
<rect x="0.75" y="0.5" width="41" height="41" rx="4.5" stroke="white"/>
</svg>
