<svg width="144" height="89" viewBox="0 0 144 89" fill="none" xmlns="http://www.w3.org/2000/svg">
<path fill-rule="evenodd" clip-rule="evenodd" d="M116.899 70.7819C120.618 70.7105 123.595 73.7838 123.546 77.4591C123.546 81.2771 120.737 84.1577 116.971 84.1577C115.532 84.1577 114.139 83.6783 113.202 82.9093H113.157V88.9844H109.005V71.0701H112.938V72.2229H112.988C113.996 71.2627 115.292 70.7819 116.899 70.7819ZM68.4364 66.7302C72.3872 66.7302 75.4156 68.7277 76.1755 71.7966L72.199 72.674C71.6316 70.9876 70.3769 70.1715 68.4364 70.1715C66.8024 70.1715 65.716 70.7736 65.716 71.701C65.8101 72.5328 66.4018 72.7853 70.3298 73.7127C74.6599 74.7343 76.7173 76.3137 76.7173 79.0944C76.7173 82.2347 73.8073 84.2564 69.3589 84.2564C64.6025 84.2564 61.527 82.045 60.9353 78.217L64.9347 77.5036C65.4308 79.8078 66.8024 80.7908 69.3831 80.7908C71.3478 80.7908 72.5056 80.2144 72.5056 79.1914C72.5056 78.1927 71.6316 77.7062 67.6308 76.8016C63.3962 75.8514 61.5028 74.3405 61.5028 71.7723C61.5028 68.8232 64.2959 66.7302 68.4364 66.7302ZM100.414 70.6127C104.491 70.6658 107.621 73.647 107.55 77.4345L107.55 77.6702C107.489 81.4233 104.273 84.3257 100.158 84.2558L99.9025 84.2564C95.8263 84.2033 92.696 81.2221 92.7672 77.4345C92.6945 73.5681 95.9581 70.5419 100.158 70.6132L100.414 70.6127ZM84.9678 70.614C88.2798 70.614 91.0615 72.4873 91.783 75.1753L87.9177 76.3524C87.5356 75.0326 86.4791 74.2408 84.9678 74.2408C83.1442 74.2408 81.8724 75.5134 81.8724 77.4338C81.8724 79.33 83.1442 80.6283 84.9678 80.6283C86.4791 80.6283 87.5113 79.8593 87.9177 78.5153L91.783 79.6909C91.0615 82.3818 88.2798 84.2551 84.9678 84.2551C80.8643 84.2551 77.7205 81.3246 77.7205 77.4338C77.7205 73.5445 80.8643 70.614 84.9678 70.614ZM52.9192 70.613C57.0725 70.613 60.0723 73.5934 60.0723 77.4585V78.6827H49.8224C49.9436 80.1251 51.1683 80.9883 53.1844 80.9883C54.5032 80.9883 55.775 80.3876 57.024 79.2106L59.3266 81.8543C57.5758 83.4851 55.6324 84.2541 53.0404 84.2541C48.6005 84.2541 45.719 81.5647 45.719 77.4585C45.6477 73.6405 48.8643 70.5416 52.9192 70.613ZM131.848 70.613C136 70.613 139.003 73.5934 139.003 77.4585V78.6827H128.753C128.873 80.1251 130.099 80.9883 132.115 80.9883C133.434 80.9883 134.704 80.3876 135.953 79.2106L138.257 81.8543C136.506 83.4851 134.563 84.2541 131.969 84.2541C127.531 84.2541 124.649 81.5647 124.649 77.4585C124.578 73.6405 127.795 70.5416 131.848 70.613ZM34.2017 71.071V77.5541C34.2017 79.4988 35.0643 80.4376 36.9848 80.4376C38.7855 80.4376 39.9846 79.2833 39.9846 77.5541V71.071H44.1365V83.7976H40.1044V82.5748H40.0588C39.0507 83.6306 37.6563 84.1585 35.8812 84.1585C34.0805 84.1585 32.6647 83.6535 31.6096 82.6234C30.5773 81.589 30.0484 80.1979 30.0484 78.443V71.071H34.2017ZM28.1298 66.7306V83.7989H23.9779V66.7306H28.1298ZM16.4493 66.7301C19.4733 66.7301 21.6633 68.6034 21.6633 71.27C21.6633 72.6154 21.0146 73.9237 19.9595 74.5972V74.6442C21.3996 75.3419 22.2992 76.8186 22.2992 78.5478C22.2992 82.0291 20.1107 83.7983 15.6693 83.7983H6.98776L6.95069 66.7301H16.4493ZM100.158 74.24C98.2151 74.24 96.9191 75.537 96.9191 77.4345C96.9191 79.2836 98.2151 80.629 100.158 80.629C102.102 80.629 103.398 79.2836 103.398 77.4345C103.398 75.5855 102.102 74.24 100.158 74.24ZM116.226 74.4073C114.33 74.4073 113.058 75.6557 113.058 77.4106C113.058 79.2596 114.378 80.5566 116.226 80.5566C118.074 80.5566 119.396 79.2596 119.396 77.4106C119.396 75.6557 118.123 74.4073 116.226 74.4073ZM16.0657 76.6859H11.151L11.1867 80.1957H16.1014C17.4459 80.1957 18.0746 79.5794 18.0746 78.4023C18.0746 77.3223 17.3375 76.6859 16.0657 76.6859ZM52.9677 73.7604C51.2638 73.7604 50.0163 74.6236 49.848 75.9447H56.0402C55.872 74.5765 54.7199 73.7604 52.9677 73.7604ZM131.898 73.7604C130.193 73.7604 128.945 74.6236 128.778 75.9447H134.971C134.802 74.5765 133.65 73.7604 131.898 73.7604ZM15.6822 70.3326H11.151V73.4201H15.6822C16.81 73.4201 17.4145 72.7581 17.4145 71.7736C17.4145 70.8377 16.81 70.3326 15.6822 70.3326ZM101.098 9.16136L113.805 16.5266C104.852 25.7657 93.7564 31.9474 80.7526 34.8935C64.9714 38.4754 52.137 46.0694 42.7844 57.2012L30.0482 49.8191C39.8062 37.7179 52.6197 29.9267 68.1439 26.668C80.6753 24.0219 91.5682 18.3186 100.524 9.71323L101.098 9.16136ZM116.512 18.3605L129.127 25.5873C119.577 35.8988 107.285 42.7517 92.5596 45.9528C82.0428 48.2211 73.7474 52.3653 67.2254 57.2012L54.5625 49.9494C62.1271 44.2079 71.1512 40.1343 81.5382 37.8057C95.0805 34.7729 106.697 28.3853 116.062 18.8216L116.512 18.3605ZM131.019 26.5375L143.427 33.7234C130.129 50.1711 110.397 55.6417 102.986 57.2012V57.1948L89.291 49.2629C90.3371 48.9847 91.3957 48.7276 92.467 48.4916C107.794 45.1241 120.626 37.8896 130.601 26.9947L131.019 26.5375ZM86.2253 0.984375L98.4839 8.00785C91.3377 14.7962 81.3435 21.1062 67.6411 23.9643C48.766 27.8843 36.0919 37.871 27.9299 48.002L15.7482 41.0219C16.4192 40.0176 28.3267 21.663 54.8299 15.6355C79.0708 10.1215 86.2253 0.984375 86.2253 0.984375ZM58.8227 0.984375L70.9053 7.86725C66.6546 9.67547 61.2472 11.5003 54.4544 13.0351C28.2508 18.959 15.572 36.248 13.2966 39.6531L13.1664 39.8251L0.426758 32.5673C1.03131 31.7512 1.64636 30.9289 2.31598 30.0983C9.56641 21.0489 22.6461 9.40828 43.8201 5.32785C48.9756 4.33571 54.2906 3.04737 58.8227 0.984375Z" fill="#0046AC"/>
</svg>
